<?xml version="1.0" encoding="utf-8"?>
<!-- Generator: Adobe Illustrator 15.0.0, SVG Export Plug-In . SVG Version: 6.00 Build 0)  -->
<!DOCTYPE svg PUBLIC "-//W3C//DTD SVG 1.1//EN" "http://www.w3.org/Graphics/SVG/1.1/DTD/svg11.dtd">
<svg version="1.1" id="Layer_1" xmlns="http://www.w3.org/2000/svg" xmlns:xlink="http://www.w3.org/1999/xlink" x="0px" y="0px"
	 width="100px" height="100px" viewBox="0 0 100 100" enable-background="new 0 0 100 100" xml:space="preserve">
<g id="Captions" display="none">
</g>
<g id="Your_Icon">
	<path fill="#FFFFFF" d="M18.941,32.473l3.292,9.224l-8.253,2.945l8.834,24.76c1.242,3.479,5.084,5.301,8.563,4.06l7.282-2.599
		c0.146-0.053,0.28-0.119,0.42-0.182c0.185-0.049,0.367-0.101,0.552-0.164l39.812-14.207c3.479-1.24,5.301-5.082,4.059-8.562
		L71.377,13.763L18.941,32.473z M31.068,66.457c0.287,0.805-0.135,1.689-0.938,1.977l-0.485,0.174
		c-0.804,0.287-1.688-0.133-1.976-0.938l-7.104-19.905l3.398-1.212L31.068,66.457z M78.646,49.48
		c0.287,0.803-0.133,1.689-0.937,1.977L36.443,66.182c-0.804,0.287-0.234-0.652-0.52-1.457L25.529,35.595L68.252,20.35L78.646,49.48
		z"/>
	
		<rect x="29.569" y="31.275" transform="matrix(-0.9418 0.3361 -0.3361 -0.9418 106.5054 50.3002)" fill="#FFFFFF" width="38.661" height="6.185"/>
	
		<rect x="34.463" y="45.108" transform="matrix(-0.9418 0.3361 -0.3361 -0.9418 96.826 83.766)" fill="#FFFFFF" width="13.402" height="10.309"/>
	
		<rect x="51.71" y="37.756" transform="matrix(0.9419 -0.336 0.336 0.9419 -9.8179 22.8936)" fill="#FFFFFF" width="19.074" height="4.123"/>
	
		<rect x="53.787" y="43.587" transform="matrix(0.9418 -0.3361 0.3361 0.9418 -11.6594 23.9394)" fill="#FFFFFF" width="19.071" height="4.124"/>
</g>
</svg>
