<?xml version="1.0" encoding="utf-8"?>
<!-- Generator: Adobe Illustrator 15.0.0, SVG Export Plug-In . SVG Version: 6.00 Build 0)  -->
<!DOCTYPE svg PUBLIC "-//W3C//DTD SVG 1.1//EN" "http://www.w3.org/Graphics/SVG/1.1/DTD/svg11.dtd">
<svg version="1.1" id="Layer_1" xmlns="http://www.w3.org/2000/svg" xmlns:xlink="http://www.w3.org/1999/xlink" x="0px" y="0px"
	 width="64.125px" height="100px" viewBox="0 0 64.125 100" enable-background="new 0 0 64.125 100" xml:space="preserve">
<rect x="-0.689" y="69.901" transform="matrix(-0.866 -0.5 0.5 -0.866 -10.7243 141.8421)" fill="#FFFFFF" width="28.663" height="4.913"/>
<path fill="#FFFFFF" d="M50.154,89.814c7.178-6.767,11.717-16.285,11.717-26.898c0-13.087-6.869-24.882-17.555-31.511l11.967-20.722
	l-1.882-1.09l2.96-5.125L49.625,0l-2.961,5.121l-1.984-1.142L15.254,54.953l2.575,1.486l-3.649,6.318l6.456,3.725l3.65-6.311
	l2.568,1.484l12.372-21.435c7.596,4.833,12.455,13.304,12.455,22.694c0,14.835-12.07,26.897-26.906,26.897
	c-9.927,0-21.684,0-21.684,0V100h61.034V89.814C64.125,89.814,55.091,89.814,50.154,89.814z"/>
</svg>
