<?xml version="1.0" encoding="utf-8"?>
<!-- Generator: Adobe Illustrator 15.0.0, SVG Export Plug-In . SVG Version: 6.00 Build 0)  -->
<!DOCTYPE svg PUBLIC "-//W3C//DTD SVG 1.1//EN" "http://www.w3.org/Graphics/SVG/1.1/DTD/svg11.dtd">
<svg version="1.1" id="Layer_1" xmlns="http://www.w3.org/2000/svg" xmlns:xlink="http://www.w3.org/1999/xlink" x="0px" y="0px"
	 width="56.062px" height="100px" viewBox="0 0 56.062 100" enable-background="new 0 0 56.062 100" xml:space="preserve">
<path id="path2468" fill="#FFFFFF" d="M52.836,93.436h-1.52c-0.886-1.011-1.216-2.275-0.95-3.836
	c0.444-2.574,2.278-4.711,3.152-5.021l-0.014-0.024c1.241-0.447,2.164-1.65,2.164-3.07l0.063-67.347
	c0-1.805-1.456-3.276-3.229-3.288c0,0-13.48-0.012-17.176-0.039c0.012-3.174,0.023-7.526,0.023-7.526
	c0-1.329-0.771-2.519-1.987-3.03c-1.213-0.512-2.594-0.231-3.53,0.688L7.277,23.579c-3.961,3.981-7.087,11.504-7.1,17.162L0,87.855
	c-0.012,6.592,5.278,11.99,11.824,12.018l41,0.127c1.783,0,3.239-1.473,3.239-3.264v-0.012
	C56.062,94.904,54.633,93.447,52.836,93.436 M49.239,17.4c0,5.618-0.05,55.179-0.062,60.809H12.228l23.137-19.604l-0.048-41.231
	C37.417,17.386,47.291,17.4,49.239,17.4 M6.481,87.869c0,0,0.012-2.713,0.012-3.109h38.696c-0.558,1.19-1,2.444-1.215,3.713
	c-0.305,1.752-0.152,3.389,0.238,4.938l-32.366-0.104C8.886,93.307,6.481,90.876,6.481,87.869"/>
</svg>
