<?xml version="1.0" encoding="utf-8"?>
<!-- Generator: Adobe Illustrator 15.0.0, SVG Export Plug-In . SVG Version: 6.00 Build 0)  -->
<!DOCTYPE svg PUBLIC "-//W3C//DTD SVG 1.1//EN" "http://www.w3.org/Graphics/SVG/1.1/DTD/svg11.dtd">
<svg version="1.1" id="Layer_1" xmlns="http://www.w3.org/2000/svg" xmlns:xlink="http://www.w3.org/1999/xlink" x="0px" y="0px"
	 width="48px" height="100px" viewBox="0 0 48 100" enable-background="new 0 0 48 100" xml:space="preserve">
<path fill="#FFFFFF" d="M41.6,1H6.4C2.865,1,0,3.865,0,7.4v76.034c0,3.535,2.865,6.399,6.4,6.399h35.2c3.535,0,6.4-2.864,6.4-6.399
	V7.4C48,3.865,45.135,1,41.6,1z M24,86.999c-2.302,0-4.167-1.864-4.167-4.166s1.865-4.167,4.167-4.167
	c2.3,0,4.166,1.865,4.166,4.167S26.301,86.999,24,86.999z M44,73.434c0,1.322-1.077,2.399-2.4,2.399H6.4
	c-1.323,0-2.4-1.077-2.4-2.399V7.4C4,6.077,5.077,5,6.4,5h35.2C42.923,5,44,6.077,44,7.4V73.434z"/>
</svg>
